<svg height="512" viewBox="0 0 512 512" width="512" xmlns="http://www.w3.org/2000/svg"><path d="m456 192a8 8 0 0 0 8-8v-24h8a8 8 0 0 0 8-8v-16h16a8 8 0 0 0 8-8v-40a8 8 0 0 0 -5.7-7.66l-240-72a8.006 8.006 0 0 0 -4.6 0l-240 72a8 8 0 0 0 -5.7 7.66v40a8 8 0 0 0 8 8h16v16a8 8 0 0 0 8 8h8v24a8 8 0 0 0 8 8h8v192h-8a8 8 0 0 0 -8 8v24h-8a8 8 0 0 0 -8 8v16h-16a8 8 0 0 0 -8 8v48a8 8 0 0 0 8 8h480a8 8 0 0 0 8-8v-48a8 8 0 0 0 -8-8h-16v-16a8 8 0 0 0 -8-8h-8v-24a8 8 0 0 0 -8-8h-8v-192zm-432-72v-26.05l232-69.6 232 69.6v26.05zm24 24v-8h416v8zm400 256v16h-80v-16zm-64-16v-192h48v192zm-16 0h-8a8 8 0 0 0 -8 8v24h-40v-24a8 8 0 0 0 -8-8h-8v-192h8a8 8 0 0 0 8-8v-24h40v24a8 8 0 0 0 8 8h8zm-216 0h-8v-192h8a8 8 0 0 0 8-8v-24h40v24a8 8 0 0 0 8 8h8v192h-8a8 8 0 0 0 -8 8v24h-40v-24a8 8 0 0 0 -8-8zm-88-208v-16h80v16zm64 16v192h-48v-192zm88 208h80v16h-80zm16-16v-192h48v192zm-16-208v-16h80v16zm-152 224h80v16h-80zm424 56v32h-464v-32zm-24-24v8h-416v-8zm-96-256v-16h80v16z"/></svg>