<?xml version="1.0" encoding="iso-8859-1"?>
<!-- Generator: Adobe Illustrator 18.1.1, SVG Export Plug-In . SVG Version: 6.00 Build 0)  -->
<svg version="1.1" id="Capa_1" xmlns="http://www.w3.org/2000/svg" xmlns:xlink="http://www.w3.org/1999/xlink" x="0px" y="0px"
	 viewBox="0 0 30.194 30.194" style="enable-background:new 0 0 30.194 30.194;" xml:space="preserve">
<g>
	<g id="c181_note">
		<path style="fill:#030104;" d="M23.823,1.905h-4.804v1.946h3.893c0.539,0,0.973,0.436,0.973,0.971v5.593v4.08v12.778
			c0,0.538-0.434,0.973-0.973,0.973h-9.857h-0.802H7.276c-0.537,0-0.97-0.435-0.97-0.973V4.822c0-0.535,0.433-0.971,0.97-0.971
			h3.953V1.905H6.306c-1.077,0-1.947,0.872-1.947,1.947v24.395c0,1.078,0.87,1.947,1.947,1.947h4.722h4.143h8.652
			c1.078,0,2.012-0.869,2.012-1.947v-15.12v-2.16V3.852C25.835,2.777,24.901,1.905,23.823,1.905z"/>
		<path style="fill:#030104;" d="M10.546,4.962c-0.416,0-0.752,0.232-0.752,0.518c0,0.288,0,1.032,0,1.032h10.605
			c0,0,0-0.744,0-1.032c0-0.285-0.341-0.518-0.755-0.518H17.38V0.74c-2.321-1.648-4.58-0.028-4.58-0.028l0.006,4.25H10.546z"/>
		<rect x="8.713" y="11.209" style="fill:#030104;" width="12.767" height="2.456"/>
		<rect x="8.713" y="16.809" style="fill:#030104;" width="12.767" height="2.454"/>
		<rect x="8.713" y="22.637" style="fill:#030104;" width="12.767" height="2.456"/>
	</g>
</g>
<g>
</g>
<g>
</g>
<g>
</g>
<g>
</g>
<g>
</g>
<g>
</g>
<g>
</g>
<g>
</g>
<g>
</g>
<g>
</g>
<g>
</g>
<g>
</g>
<g>
</g>
<g>
</g>
<g>
</g>
</svg>
