<?xml version="1.0" encoding="iso-8859-1"?>
<!-- Generator: Adobe Illustrator 19.0.0, SVG Export Plug-In . SVG Version: 6.00 Build 0)  -->
<svg version="1.1" id="Capa_1" xmlns="http://www.w3.org/2000/svg" xmlns:xlink="http://www.w3.org/1999/xlink" x="0px" y="0px"
	 viewBox="0 0 479.961 479.961" style="enable-background:new 0 0 479.961 479.961;" xml:space="preserve">
<g>
	<g>
		<path d="M372.3,271.555c-44.436-28.922-103.905-16.345-132.827,28.091c-10.14,15.579-15.539,33.766-15.541,52.355
			c-0.027,18.595,5.37,36.793,15.528,52.368l13.408-8.736c-24.094-37.035-13.603-86.59,23.432-110.684
			c37.035-24.094,86.59-13.603,110.684,23.432c24.094,37.035,13.603,86.59-23.432,110.684c-26.524,17.256-60.728,17.256-87.252,0
			l-8.736,13.408c44.436,28.922,103.905,16.345,132.827-28.091C429.313,359.945,416.736,300.477,372.3,271.555z"/>
	</g>
</g>
<g>
	<g>
		<path d="M358.276,326.344l-54.344,54.344l-18.344-18.344l-11.312,11.312l24,24c1.5,1.5,3.534,2.344,5.656,2.344
			c2.122,0,4.156-0.844,5.656-2.344l60-60L358.276,326.344z"/>
	</g>
</g>
<g>
	<g>
		<rect x="71.932" y="272" width="120" height="16"/>
	</g>
</g>
<g>
	<g>
		<rect x="119.932" y="240" width="88" height="16"/>
	</g>
</g>
<g>
	<g>
		<rect x="71.932" y="200" width="168" height="16"/>
	</g>
</g>
<g>
	<g>
		<rect x="119.932" y="168" width="192" height="16"/>
	</g>
</g>
<g>
	<g>
		<rect x="71.932" y="344" width="104" height="16"/>
	</g>
</g>
<g>
	<g>
		<rect x="119.932" y="312" width="56" height="16"/>
	</g>
</g>
<g>
	<g>
		<rect x="71.932" y="416" width="120" height="16"/>
	</g>
</g>
<g>
	<g>
		<rect x="119.932" y="384" width="56" height="16"/>
	</g>
</g>
<g>
	<g>
		<path d="M222.9,98.357c-1.844-5.929-6.032-10.847-11.592-13.613l-15.592-7.8c-3.376-1.686-4.745-5.789-3.059-9.165
			c1.156-2.314,3.52-3.777,6.107-3.779h2.336c3.771,0.004,6.828,3.061,6.832,6.832V72h16v-1.168c-0.037-9.94-6.511-18.71-16-21.672
			V40h-16v9.16c-11.999,3.732-18.7,16.484-14.968,28.483c1.844,5.929,6.032,10.847,11.592,13.613l15.592,7.8
			c3.376,1.686,4.745,5.789,3.059,9.165c-1.156,2.314-3.52,3.777-6.107,3.779h-2.336c-3.771-0.004-6.828-3.061-6.832-6.832V104h-16
			v1.168c0.037,9.94,6.511,18.71,16,21.672V136h16v-9.16C219.931,123.108,226.632,110.356,222.9,98.357z"/>
	</g>
</g>
<g>
	<g>
		<path d="M364.448,232.124c-4.102-1.516-8.28-2.82-12.516-3.908V72h40c4.418,0,8-3.582,8-8V32c0-17.673-14.327-32-32-32h-304
			c-17.673,0-32,14.327-32,32v432c0,4.418,3.582,8,8,8h235.88c66.24,24.476,139.78-9.38,164.256-75.62
			C464.544,330.14,430.688,256.6,364.448,232.124z M351.932,32c0-8.837,7.163-16,16-16s16,7.163,16,16v24h-32V32z M47.932,456V32
			c0-8.837,7.163-16,16-16H340.38c-2.879,4.843-4.415,10.366-4.448,16v193.112c-70.017-8.949-134.031,40.557-142.98,110.574
			c-5.974,46.743,14.258,92.981,52.643,120.314H47.932z M319.932,464c-61.856,0-112-50.144-112-112s50.144-112,112-112
			c61.828,0.066,111.934,50.172,112,112C431.932,413.856,381.788,464,319.932,464z"/>
	</g>
</g>
<g>
	<g>
		<rect x="87.932" y="168" width="16" height="16"/>
	</g>
</g>
<g>
	<g>
		<rect x="87.932" y="240" width="16" height="16"/>
	</g>
</g>
<g>
	<g>
		<rect x="87.932" y="312" width="16" height="16"/>
	</g>
</g>
<g>
	<g>
		<rect x="87.932" y="384" width="16" height="16"/>
	</g>
</g>
<g>
</g>
<g>
</g>
<g>
</g>
<g>
</g>
<g>
</g>
<g>
</g>
<g>
</g>
<g>
</g>
<g>
</g>
<g>
</g>
<g>
</g>
<g>
</g>
<g>
</g>
<g>
</g>
<g>
</g>
</svg>
