<svg height="511pt" viewBox="-91 0 511 511.99948" width="511pt" xmlns="http://www.w3.org/2000/svg"><path d="m315.5 211h-124.214844l107.253906-188.585938c2.640626-4.640624 2.609376-10.339843-.074218-14.957031-2.683594-4.617187-7.625-7.457031-12.964844-7.457031h-180c-6.460938 0-12.199219 4.140625-14.234375 10.273438l-90 270.996093c-1.519531 4.574219-.75 9.597657 2.070313 13.507813 2.820312 3.90625 7.34375 6.222656 12.164062 6.222656h127.292969l-81.089844 190.113281c-2.886719 6.769531-.441406 14.628907 5.777344 18.5625 6.21875 3.933594 14.371093 2.773438 19.25-2.730469l240-271c8.546875-9.65625 1.679687-24.945312-11.230469-24.945312zm-189.921875 206.832031 53.71875-125.945312c4.210937-9.875-3.039063-20.886719-13.796875-20.886719h-129.214844l80.039063-241h143.386719l-107.25 188.582031c-5.671876 9.972657 1.535156 22.417969 13.039062 22.417969h116.679688zm0 0"/></svg>