<svg id="Capa_1" enable-background="new 0 0 512 512" viewBox="0 0 512 512" xmlns="http://www.w3.org/2000/svg"><g><g><path d="m467 29h-422c-24.813 0-45 20.187-45 45v268c0 24.813 20.187 45 45 45h148v66h-97c-8.284 0-15 6.716-15 15s6.716 15 15 15h320c8.284 0 15-6.716 15-15s-6.716-15-15-15h-97v-66h148c24.813 0 45-20.187 45-45v-268c0-24.813-20.187-45-45-45zm-178 424h-66v-66h66zm193-111c0 8.271-6.729 15-15 15-15.258 0-397.882 0-422 0-8.271 0-15-6.729-15-15v-268c0-8.271 6.729-15 15-15h422c8.271 0 15 6.729 15 15z"/></g><g><path d="m94.71 113.069c-1.734-8.306-9.535-13.296-17.64-11.779-8.088 1.678-13.345 9.334-11.78 17.64 1.667 8.041 9.277 13.346 17.64 11.78 8.112-1.7 13.334-9.332 11.78-17.641z"/></g><g><path d="m224 101h-80c-8.284 0-15 6.716-15 15s6.716 15 15 15h80c8.284 0 15-6.716 15-15s-6.716-15-15-15z"/></g><g><path d="m94.71 177.069c-1.908-9.142-11.126-13.95-19.07-11.409-7.786 2.364-12.411 10.584-9.99 18.699 2.829 8.68 11.586 12.244 18.71 9.98 7.053-2.141 11.849-9.25 10.35-17.27z"/></g><g><path d="m224 165h-80c-8.284 0-15 6.716-15 15s6.716 15 15 15h80c8.284 0 15-6.716 15-15s-6.716-15-15-15z"/></g><g><path d="m77.07 229.29c-12.291 2.551-16.422 18.011-6.58 26.31 7.008 5.531 16.207 3.927 21.11-2.09 8.824-10.812-.553-26.836-14.53-24.22z"/></g><g><path d="m224 229h-80c-8.284 0-15 6.716-15 15s6.716 15 15 15h80c8.284 0 15-6.716 15-15s-6.716-15-15-15z"/></g><g><path d="m360 93c-47.972 0-87 39.028-87 87s39.028 87 87 87 87-39.028 87-87-39.028-87-87-87zm54.983 72h-39.983v-39.982c19.391 5.295 34.686 20.591 39.983 39.982zm-54.983 72c-31.43 0-57-25.57-57-57 0-26.238 17.826-48.38 42-54.982v54.982c0 8.284 6.716 15 15 15h54.983c-6.603 24.174-28.745 42-54.983 42z"/></g><g><path d="m168 293h-24c-8.284 0-15 6.716-15 15s6.716 15 15 15h24c8.284 0 15-6.716 15-15s-6.716-15-15-15z"/></g><g><path d="m312 293h-24c-8.284 0-15 6.716-15 15s6.716 15 15 15h24c8.284 0 15-6.716 15-15s-6.716-15-15-15z"/></g></g></svg>