<svg id="Capa_1" enable-background="new 0 0 512 512" height="512" viewBox="0 0 512 512" width="512" xmlns="http://www.w3.org/2000/svg"><g><path d="m447 154.614v-154.614h-382v154.614l-65 50v307.386h512v-307.386zm35 64.772v41.223l-35 21.494v-89.64zm-65-189.386v270.526l-160.895 98.807-161.105-101.611v-267.722zm-352 162.463v86.338l-35-22.075v-37.34zm-35 289.537v-189.805l225.895 142.473 226.105-138.854v186.186z"/><path d="m255.714 264.533c-17.369 0-31.5-11.559-31.5-25.767h-30c0 26.06 19.815 48.002 46.5 54.089v23.145h30v-23.145c26.685-6.087 46.5-28.029 46.5-54.089 0-30.75-27.589-55.766-61.5-55.766-17.369 0-31.5-11.559-31.5-25.766s14.131-25.767 31.5-25.767 31.5 11.559 31.5 25.767h30c0-26.06-19.815-48.002-46.5-54.089v-23.145h-30v23.145c-26.685 6.087-46.5 28.029-46.5 54.089 0 30.75 27.589 55.766 61.5 55.766 17.369 0 31.5 11.559 31.5 25.766s-14.131 25.767-31.5 25.767z"/></g></svg>